<svg xmlns="http://www.w3.org/2000/svg" xmlns:xlink="http://www.w3.org/1999/xlink" viewBox="0 0 507.82952 420.53388"><defs><linearGradient id="b209d393-6e9f-41e7-9b50-b031e003375a" x1="-10.6227" y1="357.89653" x2="46.90419" y2="357.89653" gradientUnits="userSpaceOnUse"><stop offset="0.3787" stop-color="#57d9a3"/><stop offset="1" stop-color="#36b37e"/></linearGradient><linearGradient id="e05b24f6-d194-46b0-8f41-f62e8d4bb49d" x1="51.41312" y1="145" x2="506.33176" y2="145" gradientUnits="userSpaceOnUse"><stop offset="0" stop-color="#deebff"/><stop offset="0.12" stop-color="#deebff" stop-opacity="0.98"/><stop offset="0.28" stop-color="#deebff" stop-opacity="0.92"/><stop offset="0.44" stop-color="#deebff" stop-opacity="0.82"/><stop offset="0.62" stop-color="#deebff" stop-opacity="0.68"/><stop offset="0.81" stop-color="#deebff" stop-opacity="0.51"/><stop offset="1" stop-color="#deebff" stop-opacity="0.3"/></linearGradient><linearGradient id="a9fc60d4-34ea-4f09-a5aa-98d36a122e4e" x1="116.90015" y1="39.48983" x2="135.95903" y2="39.48983" gradientUnits="userSpaceOnUse"><stop offset="0" stop-color="#e3edfe"/><stop offset="1" stop-color="#bfd5fb"/></linearGradient><linearGradient id="b5a81921-4a65-4a79-88dd-bf0305f16a6e" x1="78.30954" y1="39.48983" x2="97.36832" y2="39.48983" xlink:href="#a9fc60d4-34ea-4f09-a5aa-98d36a122e4e"/><linearGradient id="b40f6878-5b1e-420e-afd4-921c6a759ce6" x1="193.90015" y1="39.48983" x2="212.95903" y2="39.48983" xlink:href="#a9fc60d4-34ea-4f09-a5aa-98d36a122e4e"/><linearGradient id="fe498595-b675-4187-94d6-59bfbe2ff393" x1="155.30954" y1="39.48983" x2="174.36832" y2="39.48983" xlink:href="#a9fc60d4-34ea-4f09-a5aa-98d36a122e4e"/><linearGradient id="fa0f2d13-c7ab-4083-aba9-d686ffb94181" x1="271.40015" y1="39.48983" x2="290.45903" y2="39.48983" xlink:href="#a9fc60d4-34ea-4f09-a5aa-98d36a122e4e"/><linearGradient id="b557a331-aa17-4944-abd1-7618f26e235f" x1="232.80954" y1="39.48983" x2="251.86832" y2="39.48983" xlink:href="#a9fc60d4-34ea-4f09-a5aa-98d36a122e4e"/><linearGradient id="e09c04ae-6450-46b6-8c48-efc8875a44b5" x1="348.40015" y1="39.48983" x2="367.45903" y2="39.48983" xlink:href="#a9fc60d4-34ea-4f09-a5aa-98d36a122e4e"/><linearGradient id="adca04a7-c872-4aaa-a9ae-9426661bcfec" x1="309.80954" y1="39.48983" x2="328.86832" y2="39.48983" xlink:href="#a9fc60d4-34ea-4f09-a5aa-98d36a122e4e"/><linearGradient id="e19c6f69-a594-42b1-93fe-cf2e481b5b07" x1="234.15015" y1="88.48983" x2="253.20903" y2="88.48983" xlink:href="#a9fc60d4-34ea-4f09-a5aa-98d36a122e4e"/><linearGradient id="fbe63766-e38d-422c-a999-bf87fc075356" x1="195.55954" y1="88.48983" x2="214.61832" y2="88.48983" xlink:href="#a9fc60d4-34ea-4f09-a5aa-98d36a122e4e"/><linearGradient id="bbbcfb68-ddcd-4d97-aa97-d39613ccd54a" x1="311.15015" y1="88.48983" x2="330.20903" y2="88.48983" xlink:href="#a9fc60d4-34ea-4f09-a5aa-98d36a122e4e"/><linearGradient id="e3a6b234-c436-4aae-bdda-36fb7e377857" x1="272.55954" y1="88.48983" x2="291.61832" y2="88.48983" xlink:href="#a9fc60d4-34ea-4f09-a5aa-98d36a122e4e"/><linearGradient id="e0627275-35fa-4296-8bc9-472e6fd5f27b" x1="388.65015" y1="88.48983" x2="407.70903" y2="88.48983" xlink:href="#a9fc60d4-34ea-4f09-a5aa-98d36a122e4e"/><linearGradient id="a325b3ee-18bf-429f-8b62-6e840377039a" x1="350.05954" y1="88.48983" x2="369.11832" y2="88.48983" xlink:href="#a9fc60d4-34ea-4f09-a5aa-98d36a122e4e"/><linearGradient id="eb6fb7c1-d120-41e7-a249-6267d2c0ae76" x1="465.65015" y1="88.48983" x2="484.70903" y2="88.48983" xlink:href="#a9fc60d4-34ea-4f09-a5aa-98d36a122e4e"/><linearGradient id="e8d0b552-2c58-4f63-9578-50812af4b00f" x1="427.05954" y1="88.48983" x2="446.11832" y2="88.48983" xlink:href="#a9fc60d4-34ea-4f09-a5aa-98d36a122e4e"/><linearGradient id="e7c3d682-812f-4036-a537-2b780ce5dcf7" x1="424.92562" y1="426.90925" x2="473.87313" y2="426.90925" xlink:href="#a9fc60d4-34ea-4f09-a5aa-98d36a122e4e"/><linearGradient id="bc9fb2c1-dc58-40bc-b44a-1b4f75383c27" x1="438.04488" y1="348.61696" x2="493.37993" y2="348.61696" xlink:href="#a9fc60d4-34ea-4f09-a5aa-98d36a122e4e"/><linearGradient id="b29c6799-c537-4055-b971-3de5cb92e1e8" x1="99.46474" y1="182.39368" x2="132.16365" y2="182.39368" gradientUnits="userSpaceOnUse"><stop offset="0" stop-color="#e3edfe"/><stop offset="1" stop-color="#d9e6fc"/></linearGradient><linearGradient id="fcd49a74-d621-4427-ba8f-69bd142cbedc" x1="51.68794" y1="212.76166" x2="84.38685" y2="212.76166" xlink:href="#b29c6799-c537-4055-b971-3de5cb92e1e8"/><linearGradient id="ab9b5536-4caa-4b05-9ff0-cdb4d0daffe9" x1="255.20546" y1="54.74454" x2="250.56138" y2="-7.72021" gradientTransform="matrix(1, 0, 0, -1, 16.31303, 450)" gradientUnits="userSpaceOnUse"><stop offset="0.21" stop-color="#e5e8ec" stop-opacity="0.3"/><stop offset="0.79" stop-color="#cfd4db" stop-opacity="0.8"/></linearGradient><clipPath id="a3e7d8b5-d9cd-460a-8a07-a96784e122bb" transform="translate(16.31303 -52)"><path d="M58.19651,366.57265c-14.888-24.7464,4.84726-25.6302,0-39.4764-4.86235-13.88933-17.31163-12.0786-15.23424-24.4518C45.599,286.93921,39.5,281.89684,31.19036,281.89684s-18.17513,8.25245-13.8493,22.51521c2.76986,9.1326-1.73116,11.4894-7.96335,19.149s-4.501,18.8544,0,24.4518c5.813,7.2289,4.91152,11.7067-1.0387,18.8544-5.88595,7.0704-6.92465,21.8004,4.15479,26.514s1.15074,23.60335,7.96335,32.406c9.34828,12.0786,22.50512,12.0786,27.35238-9.7218,3.247-14.603-1.73116-15.0246,4.501-22.6842S65.95766,379.47307,58.19651,366.57265ZM14.5712,345.06685c-6.70722-3.51611,4.89365-14.53568,6.84294-14.86763,0,0,5.80951-3.74967,10.68377-.26656,4.87468,3.483-1.51913,9.05754-6.315,11.08191C20.98744,343.03894,21.27814,348.583,14.5712,345.06685Zm22.15889-44.19c-3.1161,0-2.0774,5.5974-6.57842,4.419s-1.24422-10.57107,2.42363-10.311C36.73009,295.27945,39.84618,300.87685,36.73009,300.87685Zm3.69638,73.86529c-2.8344-5.165,3.58129-10.80357,9.44425-8.04517a5.831,5.831,0,0,1,3.1323,3.41088c2.42363,6.7758,6.92465,10.6056,1.0387,11.1948C49.90521,381.71674,43.20311,379.80266,40.42647,374.74214Z" fill="url(#b209d393-6e9f-41e7-9b50-b031e003375a)"/></clipPath><linearGradient id="e78dccdc-be7c-4a99-9190-d0fe5365d69c" x1="23.15332" y1="436.80229" x2="23.15332" y2="285.03092" xlink:href="#b209d393-6e9f-41e7-9b50-b031e003375a"/><linearGradient id="e1bf85cc-b737-441d-a477-453c3e040734" x1="398.45863" y1="312.20349" x2="432.46288" y2="312.20349" xlink:href="#a9fc60d4-34ea-4f09-a5aa-98d36a122e4e"/><linearGradient id="a028e393-3a4f-4a4b-a42e-d3e36d21ca74" x1="416.55181" y1="278.38988" x2="423.01307" y2="278.38988" xlink:href="#a9fc60d4-34ea-4f09-a5aa-98d36a122e4e"/><linearGradient id="f35b4444-a1a3-485e-bc9a-bdd7bb5bf6cc" x1="432.22739" y1="278.38988" x2="438.68865" y2="278.38988" xlink:href="#a9fc60d4-34ea-4f09-a5aa-98d36a122e4e"/><linearGradient id="efd9f3a0-06f4-4368-9f23-cfcf037ae7d9" x1="392.44597" y1="309.7671" x2="423.91893" y2="309.7671" xlink:href="#a9fc60d4-34ea-4f09-a5aa-98d36a122e4e"/><linearGradient id="a90793bc-70b7-4e1c-95b7-595024670512" x1="394.30879" y1="307.27291" x2="418.58066" y2="307.27291" xlink:href="#a9fc60d4-34ea-4f09-a5aa-98d36a122e4e"/><linearGradient id="e0877370-adf9-4bbe-8bdf-bc142c7fe5ef" x1="395.65723" y1="309.88551" x2="418.13112" y2="309.88551" xlink:href="#a9fc60d4-34ea-4f09-a5aa-98d36a122e4e"/><linearGradient id="bbbc8e38-e7a8-4ffd-8a18-5811e1f559bb" x1="396.28931" y1="312.49811" x2="417.54118" y2="312.49811" xlink:href="#a9fc60d4-34ea-4f09-a5aa-98d36a122e4e"/><linearGradient id="e8ba99d9-0bc5-4f21-baad-146d75bdb5b0" x1="323.78317" y1="217.28296" x2="390.93185" y2="217.28296" gradientUnits="userSpaceOnUse"><stop offset="0.1" stop-color="#0065ff"/><stop offset="1" stop-color="#0049b0"/></linearGradient><linearGradient id="b0e11eb1-521c-4492-85f0-8c6510f427fb" x1="225.15947" y1="254.43458" x2="244.24172" y2="254.43458" gradientTransform="translate(-131.09981 54.63664) rotate(-11.17859)" gradientUnits="userSpaceOnUse"><stop offset="0.02495" stop-color="#023f32"/><stop offset="0.02638" stop-color="#023f32"/><stop offset="0.13598" stop-color="#0c5847"/><stop offset="0.2577" stop-color="#146c58"/><stop offset="0.39856" stop-color="#1a7a63"/><stop offset="0.57388" stop-color="#1d826a"/><stop offset="0.89026" stop-color="#1e846c"/></linearGradient><linearGradient id="bc08ae8d-c7bb-48a8-981b-a5d4415c56f3" x1="121.51392" y1="323.68927" x2="128.67092" y2="323.68927" gradientTransform="matrix(1, 0, 0, 1, 0, 0)" xlink:href="#b0e11eb1-521c-4492-85f0-8c6510f427fb"/><linearGradient id="e7a3fff8-5253-4605-be33-7c971d4d722b" x1="109.14407" y1="347.91884" x2="129.16222" y2="347.91884" gradientTransform="matrix(1, 0, 0, 1, 0, 0)" xlink:href="#b0e11eb1-521c-4492-85f0-8c6510f427fb"/><linearGradient id="b64bb542-4224-4d63-bbb3-f3910f5e7678" x1="113.61062" y1="324.08753" x2="124.03599" y2="324.08753" gradientTransform="matrix(1, 0, 0, 1, 0, 0)" xlink:href="#b0e11eb1-521c-4492-85f0-8c6510f427fb"/></defs><g id="bec220da-29b3-4eee-98da-b1b82cfc7649" data-name="Layer 2"><path d="M69.01448,0H488.7304a17.60136,17.60136,0,0,1,17.60136,17.60136V272.39864A17.60136,17.60136,0,0,1,488.7304,290H69.01449a17.60137,17.60137,0,0,1-17.60137-17.60137V17.60136A17.60136,17.60136,0,0,1,69.01448,0Z" fill="url(#e05b24f6-d194-46b0-8f41-f62e8d4bb49d)"/><g opacity="0.5"><rect x="110.48771" y="19.94506" width="31.88377" height="39.08943" fill="#b3cdfa"/><polygon points="110.488 19.945 110.488 20.658 141.658 20.658 141.658 59.034 142.371 59.034 142.371 19.945 110.488 19.945" fill="#cadcfb"/><rect x="116.90015" y="27.80685" width="19.05888" height="23.36597" fill="url(#a9fc60d4-34ea-4f09-a5aa-98d36a122e4e)"/><rect x="120.31642" y="31.99497" width="12.22644" height="14.98962" fill="#b3cdfa"/><rect x="71.89699" y="19.94506" width="31.88389" height="39.08943" fill="#b3cdfa"/><polygon points="71.897 19.945 71.897 20.658 103.068 20.658 103.068 59.034 103.781 59.034 103.781 19.945 71.897 19.945" fill="#cadcfb"/><rect x="78.30954" y="27.80685" width="19.05877" height="23.36597" fill="url(#b5a81921-4a65-4a79-88dd-bf0305f16a6e)"/><rect x="81.72571" y="31.99497" width="12.22644" height="14.98962" fill="#b3cdfa"/></g><g opacity="0.5"><rect x="187.48771" y="19.94506" width="31.88377" height="39.08943" fill="#b3cdfa"/><polygon points="187.488 19.945 187.488 20.658 218.658 20.658 218.658 59.034 219.371 59.034 219.371 19.945 187.488 19.945" fill="#cadcfb"/><rect x="193.90015" y="27.80685" width="19.05888" height="23.36597" fill="url(#b40f6878-5b1e-420e-afd4-921c6a759ce6)"/><rect x="197.31642" y="31.99497" width="12.22644" height="14.98962" fill="#b3cdfa"/><rect x="148.89699" y="19.94506" width="31.88389" height="39.08943" fill="#b3cdfa"/><polygon points="148.897 19.945 148.897 20.658 180.068 20.658 180.068 59.034 180.781 59.034 180.781 19.945 148.897 19.945" fill="#cadcfb"/><rect x="155.30954" y="27.80685" width="19.05877" height="23.36597" fill="url(#fe498595-b675-4187-94d6-59bfbe2ff393)"/><rect x="158.72571" y="31.99497" width="12.22644" height="14.98962" fill="#b3cdfa"/></g><g opacity="0.5"><rect x="264.98771" y="19.94506" width="31.88377" height="39.08943" fill="#b3cdfa"/><polygon points="264.988 19.945 264.988 20.658 296.158 20.658 296.158 59.034 296.871 59.034 296.871 19.945 264.988 19.945" fill="#cadcfb"/><rect x="271.40015" y="27.80685" width="19.05888" height="23.36597" fill="url(#fa0f2d13-c7ab-4083-aba9-d686ffb94181)"/><rect x="274.81642" y="31.99497" width="12.22644" height="14.98962" fill="#b3cdfa"/><rect x="226.39699" y="19.94506" width="31.88389" height="39.08943" fill="#b3cdfa"/><polygon points="226.397 19.945 226.397 20.658 257.568 20.658 257.568 59.034 258.281 59.034 258.281 19.945 226.397 19.945" fill="#cadcfb"/><rect x="232.80954" y="27.80685" width="19.05877" height="23.36597" fill="url(#b557a331-aa17-4944-abd1-7618f26e235f)"/><rect x="236.22571" y="31.99497" width="12.22644" height="14.98962" fill="#b3cdfa"/></g><g opacity="0.5"><rect x="341.98771" y="19.94506" width="31.88377" height="39.08943" fill="#b3cdfa"/><polygon points="341.988 19.945 341.988 20.658 373.158 20.658 373.158 59.034 373.871 59.034 373.871 19.945 341.988 19.945" fill="#cadcfb"/><rect x="348.40015" y="27.80685" width="19.05888" height="23.36597" fill="url(#e09c04ae-6450-46b6-8c48-efc8875a44b5)"/><rect x="351.81642" y="31.99497" width="12.22644" height="14.98962" fill="#b3cdfa"/><rect x="303.39699" y="19.94506" width="31.88389" height="39.08943" fill="#b3cdfa"/><polygon points="303.397 19.945 303.397 20.658 334.568 20.658 334.568 59.034 335.281 59.034 335.281 19.945 303.397 19.945" fill="#cadcfb"/><rect x="309.80954" y="27.80685" width="19.05877" height="23.36597" fill="url(#adca04a7-c872-4aaa-a9ae-9426661bcfec)"/><rect x="313.22571" y="31.99497" width="12.22644" height="14.98962" fill="#b3cdfa"/></g><polygon points="308.175 231.75 243.516 231.75 243.516 183.677 284.175 183.677 287.868 203.626 308.175 211.866 308.175 231.75" fill="#1a2e35"/><polygon points="308.175 231.75 243.516 231.75 243.516 183.677 284.175 183.677 287.868 203.626 308.175 211.866 308.175 231.75" fill="#fff" opacity="0.1" style="isolation:isolate"/><polygon points="278.175 231.75 241.516 231.75 241.516 183.677 254.175 183.677 257.868 203.626 278.175 211.866 278.175 231.75" fill="#fff" opacity="0.1" style="isolation:isolate"/><polygon points="282.941 192.849 281.848 186.936 258.487 186.936 259.58 192.849 282.941 192.849" opacity="0.2" style="isolation:isolate"/><polygon points="260.067 195.486 260.846 199.706 284.21 199.706 283.429 195.486 260.067 195.486" opacity="0.2" style="isolation:isolate"/><polygon points="257.868 203.626 287.868 203.626 308.175 211.866 278.175 211.866 257.868 203.626" fill="#fff" opacity="0.3" style="isolation:isolate"/><g opacity="0.5"><rect x="227.73771" y="68.94506" width="31.88377" height="39.08943" fill="#b3cdfa"/><polygon points="227.738 68.945 227.738 69.658 258.908 69.658 258.908 108.034 259.621 108.034 259.621 68.945 227.738 68.945" fill="#cadcfb"/><rect x="234.15015" y="76.80685" width="19.05888" height="23.36597" fill="url(#e19c6f69-a594-42b1-93fe-cf2e481b5b07)"/><rect x="237.56642" y="80.99497" width="12.22644" height="14.98962" fill="#b3cdfa"/><rect x="189.14699" y="68.94506" width="31.88389" height="39.08943" fill="#b3cdfa"/><polygon points="189.147 68.945 189.147 69.658 220.318 69.658 220.318 108.034 221.031 108.034 221.031 68.945 189.147 68.945" fill="#cadcfb"/><rect x="195.55954" y="76.80685" width="19.05877" height="23.36597" fill="url(#fbe63766-e38d-422c-a999-bf87fc075356)"/><rect x="198.97571" y="80.99497" width="12.22644" height="14.98962" fill="#b3cdfa"/></g><g opacity="0.5"><rect x="304.73771" y="68.94506" width="31.88377" height="39.08943" fill="#b3cdfa"/><polygon points="304.738 68.945 304.738 69.658 335.908 69.658 335.908 108.034 336.621 108.034 336.621 68.945 304.738 68.945" fill="#cadcfb"/><rect x="311.15015" y="76.80685" width="19.05888" height="23.36597" fill="url(#bbbcfb68-ddcd-4d97-aa97-d39613ccd54a)"/><rect x="314.56642" y="80.99497" width="12.22644" height="14.98962" fill="#b3cdfa"/><rect x="266.14699" y="68.94506" width="31.88389" height="39.08943" fill="#b3cdfa"/><polygon points="266.147 68.945 266.147 69.658 297.318 69.658 297.318 108.034 298.031 108.034 298.031 68.945 266.147 68.945" fill="#cadcfb"/><rect x="272.55954" y="76.80685" width="19.05877" height="23.36597" fill="url(#e3a6b234-c436-4aae-bdda-36fb7e377857)"/><rect x="275.97571" y="80.99497" width="12.22644" height="14.98962" fill="#b3cdfa"/></g><g opacity="0.5"><rect x="382.23771" y="68.94506" width="31.88377" height="39.08943" fill="#b3cdfa"/><polygon points="382.238 68.945 382.238 69.658 413.408 69.658 413.408 108.034 414.121 108.034 414.121 68.945 382.238 68.945" fill="#cadcfb"/><rect x="388.65015" y="76.80685" width="19.05888" height="23.36597" fill="url(#e0627275-35fa-4296-8bc9-472e6fd5f27b)"/><rect x="392.06642" y="80.99497" width="12.22644" height="14.98962" fill="#b3cdfa"/><rect x="343.64699" y="68.94506" width="31.88389" height="39.08943" fill="#b3cdfa"/><polygon points="343.647 68.945 343.647 69.658 374.818 69.658 374.818 108.034 375.531 108.034 375.531 68.945 343.647 68.945" fill="#cadcfb"/><rect x="350.05954" y="76.80685" width="19.05877" height="23.36597" fill="url(#a325b3ee-18bf-429f-8b62-6e840377039a)"/><rect x="353.47571" y="80.99497" width="12.22644" height="14.98962" fill="#b3cdfa"/></g><g opacity="0.5"><rect x="459.23771" y="68.94506" width="31.88377" height="39.08943" fill="#b3cdfa"/><polygon points="459.238 68.945 459.238 69.658 490.408 69.658 490.408 108.034 491.121 108.034 491.121 68.945 459.238 68.945" fill="#cadcfb"/><rect x="465.65015" y="76.80685" width="19.05888" height="23.36597" fill="url(#eb6fb7c1-d120-41e7-a249-6267d2c0ae76)"/><rect x="469.06642" y="80.99497" width="12.22644" height="14.98962" fill="#b3cdfa"/><rect x="420.64699" y="68.94506" width="31.88389" height="39.08943" fill="#b3cdfa"/><polygon points="420.647 68.945 420.647 69.658 451.818 69.658 451.818 108.034 452.531 108.034 452.531 68.945 420.647 68.945" fill="#cadcfb"/><rect x="427.05954" y="76.80685" width="19.05877" height="23.36597" fill="url(#e8d0b552-2c58-4f63-9578-50812af4b00f)"/><rect x="430.47571" y="80.99497" width="12.22644" height="14.98962" fill="#b3cdfa"/></g><polyline points="79.742 272.835 66.454 272.835 66.454 268.526" fill="none" stroke="#fff" stroke-linejoin="round" stroke-width="1.88"/><line x1="66.45354" y1="260.04186" x2="66.45354" y2="23.84206" fill="none" stroke="#fff" stroke-linejoin="round" stroke-width="1.88" stroke-dasharray="6.38 6.38"/><polyline points="66.454 19.667 66.454 15.358 79.742 15.358" fill="none" stroke="#fff" stroke-linejoin="round" stroke-width="1.88"/><line x1="106.31736" y1="15.35826" x2="463.80572" y2="15.35826" fill="none" stroke="#fff" stroke-linejoin="round" stroke-width="1.88" stroke-dasharray="6.18 6.18"/><polyline points="477.094 15.358 490.382 15.358 490.382 19.667" fill="none" stroke="#fff" stroke-linejoin="round" stroke-width="1.88"/><line x1="490.38158" y1="28.15129" x2="490.38158" y2="264.21639" fill="none" stroke="#fff" stroke-linejoin="round" stroke-width="1.88" stroke-dasharray="6.38 6.38"/><polyline points="490.382 268.526 490.382 272.835 477.094 272.835" fill="none" stroke="#fff" stroke-linejoin="round" stroke-width="1.88"/><line x1="450.51776" y1="272.83489" x2="93.02946" y2="272.83489" fill="none" stroke="#fff" stroke-linejoin="round" stroke-width="1.88" stroke-dasharray="6.18 6.18"/><g opacity="0.5"><path d="M444.44723,361.62205s-37.70584-9.81009-39.082-45.42724c0,0,7.15584,9.8771,17.33906,12.2714C422.70429,328.46621,445.54817,340.30411,444.44723,361.62205Z" transform="translate(16.31303 -52)" fill="#b3cdfa"/><path d="M489.97873,347.654s4.70667,23.80159-25.65233,27.89651c0,0-4.54818-7.36005,8.12282-16.0336a16.72961,16.72961,0,0,1,6.61363-2.55465C482.07689,356.42972,486.91891,354.4756,489.97873,347.654Z" transform="translate(16.31303 -52)" fill="#b3cdfa"/><path d="M472.44922,360.71133a16.73868,16.73868,0,0,1,6.61363-2.55484c3.014-.5322,7.85606-2.4865,10.91588-9.30825a18.65051,18.65051,0,0,1,.254,2.806,20.591,20.591,0,0,0-.254-4.00062c-3.05982,6.82194-7.90184,8.77606-10.91588,9.30825a16.7417,16.7417,0,0,0-6.61363,2.55484c-7.94889,5.44126-9.12,10.36329-8.88988,13.27757C463.73941,369.82507,465.49647,365.47073,472.44922,360.71133Z" transform="translate(16.31303 -52)" fill="#c2d7fb"/><path d="M447.76405,296.00481s-24.94268,42.19457,3.56326,66.52091c0,0,6.11039-5.4172,7.769-19.08266a47.4582,47.4582,0,0,0-4.57676-26.185A87.36254,87.36254,0,0,1,447.76405,296.00481Z" transform="translate(16.31303 -52)" fill="#b3cdfa"/><path d="M454.51952,317.25805a87.36826,87.36826,0,0,1-6.75547-21.25324s.01053-.18268-.93225,1.70253a81.20532,81.20532,0,0,0,5.91906,17.86021c3.87957,8.05431,6.71123,19.206,5.61715,28.22006-1.23767,10.19608-5.23379,16.54958-7.0407,18.73811.3967.36555-.41934-.35811,0-.00019,0,0,6.11039-5.417,7.769-19.08247A47.4551,47.4551,0,0,0,454.51952,317.25805Z" transform="translate(16.31303 -52)" fill="#c2d7fb"/><path d="M410.99062,353.28981S397.22922,349.99738,392,370.64951c0,0,14.86215-12.5709,17.88952-2.39449,0,0,6.88079,11.97228,17.61464,11.37385C427.50416,379.62887,428.05445,353.88824,410.99062,353.28981Z" transform="translate(16.31303 -52)" fill="#b3cdfa"/><path d="M410.99045,354.48438c14.85109.52094,16.35925,20.07852,16.50125,25.1441.004-.00019.00807.00058.01246.00039,0,0,.55029-25.74063-16.51371-26.33906,0,0-13.76123-3.29243-18.99045,17.3597,0,0,.17325-.14316.42426-.344C397.9324,351.3691,410.99045,354.48438,410.99045,354.48438Z" transform="translate(16.31303 -52)" fill="#c2d7fb"/><path d="M424.38727,376.66572c2.33192,3.42662,5.52642,5.22535,8.621,7.71739,6.67592,5.37578,6.95115,15.43651,7.5555,23.72657a1.25121,1.25121,0,1,0,2.49955,0c-.067-6.77517-1.00034-15.639-4.77861-21.25343-3.28823-4.88634-9.1355-6.619-12.8843-11.04056-.48639-.57361-1.45462.20139-1.01316.85Z" transform="translate(16.31303 -52)" fill="#b3cdfa"/><path d="M437.59961,354.23566c9.71508,8.86291,8.9877,18.73161,7.46059,31.24048-1.00686,8.2492-.66405,17.10658,2.58326,24.73636.50236,1.18064,2.00034.289,1.81287-.83113-1.17254-7.00042-2.67243-13.65285-2.21027-20.85676.37142-5.78848,2.06915-11.42195,1.51166-17.26445A26.2307,26.2307,0,0,0,438.50816,352.955c-.68457-.53849-1.56082.68586-.90855,1.28067Z" transform="translate(16.31303 -52)" fill="#b3cdfa"/><path d="M450.07771,352.08874c-.679,9.28955,1.62631,18.48652,1.77707,27.7837.15394,9.48979-2.12479,18.37083-2.97559,27.69207a.78634.78634,0,0,0,1.47252.43388c7.55764-17.38127,2.47007-37.81789.98385-55.90965a.62964.62964,0,1,0-1.25785,0Z" transform="translate(16.31303 -52)" fill="#b3cdfa"/><path d="M471.84663,369.65537c-5.54079,4.85427-13.09246,8.36164-15.4142,16.0966-1.46706,4.88729-6.32944,17.0329-1.78619,21.09232a.65605.65605,0,0,0,1.11479-.50223c.19484-6.99851,1.14323-16.84392,4.65173-22.84314,2.974-5.08486,8.78828-8.13563,12.219-13.18461.36406-.53563-.38091-1.01285-.78515-.65894Z" transform="translate(16.31303 -52)" fill="#b3cdfa"/><path d="M462.78681,454.98939H437.49763a6.11852,6.11852,0,0,1-5.87324-5.53383l-6.69877-50.62645h48.94751l-5.18938,50.42506A6.13909,6.13909,0,0,1,462.78681,454.98939Z" transform="translate(16.31303 -52)" fill="url(#e7c3d682-812f-4036-a537-2b780ce5dcf7)"/><rect x="438.04488" y="344.52777" width="55.33505" height="8.17839" fill="url(#bc9fb2c1-dc58-40bc-b44a-1b4f75383c27)"/></g><rect x="99.46474" y="177.37818" width="32.6989" height="10.03101" fill="url(#b29c6799-c537-4055-b971-3de5cb92e1e8)"/><rect x="51.68794" y="207.74616" width="32.69891" height="10.03101" fill="url(#fcd49a74-d621-4427-ba8f-69bd142cbedc)"/><ellipse cx="270.60973" cy="407.47871" rx="237.21979" ry="13.05517" fill="url(#ab9b5536-4caa-4b05-9ff0-cdb4d0daffe9)"/><path d="M58.19651,366.57265c-14.888-24.7464,4.84726-25.6302,0-39.4764-4.86235-13.88933-17.31163-12.0786-15.23424-24.4518C45.599,286.93921,39.5,281.89684,31.19036,281.89684s-18.17513,8.25245-13.8493,22.51521c2.76986,9.1326-1.73116,11.4894-7.96335,19.149s-4.501,18.8544,0,24.4518c5.813,7.2289,4.91152,11.7067-1.0387,18.8544-5.88595,7.0704-6.92465,21.8004,4.15479,26.514s1.15074,23.60335,7.96335,32.406c9.34828,12.0786,22.50512,12.0786,27.35238-9.7218,3.247-14.603-1.73116-15.0246,4.501-22.6842S65.95766,379.47307,58.19651,366.57265ZM14.5712,345.06685c-6.70722-3.51611,4.89365-14.53568,6.84294-14.86763,0,0,5.80951-3.74967,10.68377-.26656,4.87468,3.483-1.51913,9.05754-6.315,11.08191C20.98744,343.03894,21.27814,348.583,14.5712,345.06685Zm22.15889-44.19c-3.1161,0-2.0774,5.5974-6.57842,4.419s-1.24422-10.57107,2.42363-10.311C36.73009,295.27945,39.84618,300.87685,36.73009,300.87685Zm3.69638,73.86529c-2.8344-5.165,3.58129-10.80357,9.44425-8.04517a5.831,5.831,0,0,1,3.1323,3.41088c2.42363,6.7758,6.92465,10.6056,1.0387,11.1948C49.90521,381.71674,43.20311,379.80266,40.42647,374.74214Z" transform="translate(16.31303 -52)" fill="url(#b209d393-6e9f-41e7-9b50-b031e003375a)"/><g clip-path="url(#a3e7d8b5-d9cd-460a-8a07-a96784e122bb)"><path d="M16.99483,293.21725c.34623-7.65959,39.5165-21.56636,17.31163,23.568-12.46438,25.3356,4.24869,24.66238,12.11814,15.6138,12.81061-14.73,27.023.55609,3.80856,18.2652-20.08149,15.3192-29.42977,24.4518-29.42977,32.7006s5.36771,19.053,15.9267,15.9084c13.8493-4.1244,14.54177,45.0738-24.23629,36.5304-19.12866-4.21432-29.776-16.203-28.7373-54.501S16.64859,300.87685,16.99483,293.21725Z" transform="translate(16.31303 -52)" fill="url(#e78dccdc-be7c-4a99-9190-d0fe5365d69c)"/></g><polygon points="51.85 288.78 54.62 406.62 46.31 406.62 49.08 288.78 51.85 288.78" fill="#005541"/><path d="M423.44306,326.1304H402.05868a3.60022,3.60022,0,0,1,0-7.20044h14.56846a2.57654,2.57654,0,0,0,2.5191-2.064l3.72976-18.58941h8.407a1.17989,1.17989,0,1,1,0,2.35977h-6.47355l-3.34953,16.69382a4.94319,4.94319,0,0,1-4.83277,3.95955H402.05868a1.24046,1.24046,0,0,0,0,2.48092h21.38438a1.17988,1.17988,0,1,1,0,2.35976Z" transform="translate(16.31303 -52)" fill="url(#e1bf85cc-b737-441d-a477-453c3e040734)"/><circle cx="419.78244" cy="278.38988" r="3.23063" fill="url(#a028e393-3a4f-4a4b-a42e-d3e36d21ca74)"/><circle cx="435.45802" cy="278.38988" r="3.23063" fill="url(#f35b4444-a1a3-485e-bc9a-bdd7bb5bf6cc)"/><path d="M420.73565,316.428H400.987a6.3803,6.3803,0,0,1-6.12739-4.65419l-2.41359-8.66756h30.46164a1.01133,1.01133,0,0,1,0,2.02266H395.10893l1.69921,6.10237a4.35136,4.35136,0,0,0,4.17881,3.17406h19.7487a1.01133,1.01133,0,0,1,0,2.02266Z" transform="translate(16.31303 -52)" fill="url(#efd9f3a0-06f4-4368-9f23-cfcf037ae7d9)"/><path d="M418.075,307.77858H394.81446a.50567.50567,0,1,1,0-1.01133H418.075a.50567.50567,0,1,1,0,1.01133Z" transform="translate(16.31303 -52)" fill="url(#a90793bc-70b7-4e1c-95b7-595024670512)"/><path d="M417.62546,309.37985H395.65723v1.01132h21.96823a.50566.50566,0,0,0,0-1.01132Z" transform="translate(16.31303 -52)" fill="url(#e0877370-adf9-4bbe-8bdf-bc142c7fe5ef)"/><path d="M417.03552,311.99244H396.28931v1.01133h20.74621a.50567.50567,0,0,0,0-1.01133Z" transform="translate(16.31303 -52)" fill="url(#bbbc8e38-e7a8-4ffd-8a18-5811e1f559bb)"/><path d="M154.625,333.18632s1.52753,7.91819-7.40081,14.73219l2.73985,17.78548" transform="translate(16.31303 -52)" fill="none" stroke="#fff" stroke-miterlimit="10"/><g id="eecc8ac5-4e4c-434e-94c5-93cc05380142" data-name="&lt;Group&gt;"><path d="M327.96156,168.13257c6.93024,3.53185,4.94377,20.51124-12.76059,52.22465L303.06916,210.54a179.95107,179.95107,0,0,1,11.13655-28.66452C321.37951,167.522,327.96156,168.13257,327.96156,168.13257Z" transform="translate(16.31303 -52)" fill="#007cff"/><path d="M327.96156,168.13257c6.93024,3.53185,4.94377,20.51124-12.76059,52.22465L303.06916,210.54a179.95107,179.95107,0,0,1,11.13655-28.66452C321.37951,167.522,327.96156,168.13257,327.96156,168.13257Z" transform="translate(16.31303 -52)" fill="#fff" opacity="0.4" style="isolation:isolate"/><path d="M387.435,244.45815H340.28467c-4.4835,24.48067-18.516,111.11112-8.44811,188.29917l15.962-1.97935s-1.47766-102.4705,12.61575-140.35292c1.62086,20.27392,3.54554,41.84561,5.21691,53.32411,4.102,28.25147,12.88254,89.99356,12.88254,89.99356h16.25014s-3.32236-59.09814-4.85908-86.86359C388.22511,316.73563,387.49981,250.64863,387.435,244.45815Z" transform="translate(16.31303 -52)" fill="#1a2e35"/><path d="M324.591,168.37974c4.87585-1.13835,30.58778-6.86231,51.342-6.05539,0,0,6.66828,68.383,12.928,96.17539l-54.26064,9.51339s-12.19131-68.04378-10.86769-98.60482A1.10174,1.10174,0,0,1,324.591,168.37974Z" transform="translate(16.31303 -52)" fill="#007cff"/><path d="M324.591,168.37974c4.87585-1.13835,30.58778-6.86231,51.342-6.05539,0,0,6.66828,68.383,12.928,96.17539l-54.26064,9.51339s-12.19131-68.04378-10.86769-98.60482A1.10174,1.10174,0,0,1,324.591,168.37974Z" transform="translate(16.31303 -52)" fill="#fff" opacity="0.6" style="isolation:isolate"/><path d="M371.09365,161.40831s-6.218,26.121,10.769,48.31109L386.0537,237.579l4.87815,23.07072-26.998,7.11968-9.6704-21.65814-.99767,23.9138-21.48842,3.1326-2.33126-27.345s-3.69356-21.66964-4.64072-33.564c0,0-3.23-27.522,1.79309-45.07616l7.07092-1.52193s.38434,16.76947,11.12351,30.22567c0,0,10.19027-26.8528,19.43643-34.4563Z" transform="translate(16.31303 -52)" fill="#007cff"/><path d="M371.09365,161.40831s-6.218,26.121,10.769,48.31109L386.0537,237.579l4.87815,23.07072-26.998,7.11968-9.6704-21.65814-.99767,23.9138-21.48842,3.1326-2.33126-27.345s-3.69356-21.66964-4.64072-33.564c0,0-3.23-27.522,1.79309-45.07616l7.07092-1.52193s.38434,16.76947,11.12351,30.22567c0,0,10.19027-26.8528,19.43643-34.4563Z" transform="translate(16.31303 -52)" opacity="0.2" fill="url(#e8ba99d9-0bc5-4f21-baad-146d75bdb5b0)" style="isolation:isolate"/><path d="M305.38979,205.39038s-3.22255,8.81559-5.68529,9.10428c-2.46284.28881-18.49737-26.59993-18.49737-26.59993s-1.84481-5.34378-4.87891-6.78847c-2.95171-1.40568-12.03266-6.54634-14.37006-5.41346s-1.13605,10.03665-1.08488,12.05939c.0447,1.76625,7.68107,4.3815,9.96489,4.81843a7.71177,7.71177,0,0,0,4.45249-.40045s12.84847,31.643,21.1925,37.18955c8.344,5.54648,20.887-13.31443,20.887-13.31443Z" transform="translate(16.31303 -52)" fill="#fde7de"/><polygon points="317.305 157.883 319.588 156.053 333.447 167.774 331.225 171.751 317.305 157.883" fill="#007cff"/><polygon points="317.305 157.883 319.588 156.053 333.447 167.774 331.225 171.751 317.305 157.883" fill="#fff" opacity="0.3" style="isolation:isolate"/><polygon points="362.395 394.205 353.227 395.173 351.507 375.401 360.674 374.433 362.395 394.205" fill="#fcb373"/><polygon points="408.139 393.537 399.257 393.537 398.522 372.959 407.416 372.959 408.139 393.537" fill="#fcb373"/><path d="M381.71186,444.50862h10.792a.77979.77979,0,0,1,.75719.61026l1.75157,7.91039a1.31127,1.31127,0,0,1-1.29963,1.58208c-3.49185-.05654-6.03446-.27128-10.419-.27128-2.70092,0-10.84862.28256-14.57779.28256s-4.21507-3.684-2.68953-4.023c6.84818-1.49169,12.00122-3.55967,14.19356-5.526A2.14632,2.14632,0,0,1,381.71186,444.50862Z" transform="translate(16.31303 -52)" fill="#1a2e35"/><path d="M378.77363,446.06813a2.65615,2.65615,0,0,1-1.70632-.452,1.24294,1.24294,0,0,1-.44077-1.13.63261.63261,0,0,1,.36166-.58769c.9831-.50848,3.85352,1.25438,4.16994,1.45784a.19216.19216,0,0,1,.10167.20334.2151.2151,0,0,1-.15821.18089A10.64581,10.64581,0,0,1,378.77363,446.06813Zm-1.32209-1.84207a.48718.48718,0,0,0-.27127.05643c-.05643,0-.12425.0791-.13553.24859a.87039.87039,0,0,0,.28245.7573,4.31751,4.31751,0,0,0,3.16415.1582A8.62461,8.62461,0,0,0,377.45154,444.22606Z" transform="translate(16.31303 -52)" fill="#007cff"/><path d="M381.04507,445.75172h-.10167c-.9154-.49731-2.68954-2.45233-2.50876-3.39019a.68927.68927,0,0,1,.67808-.55372,1.12977,1.12977,0,0,1,.89271.27116c1.02835.83618,1.2431,3.39018,1.25438,3.51443a.22637.22637,0,0,1-.10167.19217A.19288.19288,0,0,1,381.04507,445.75172Zm-1.78542-3.60493h-.10179c-.27116,0-.29373.15821-.30513.21474-.113.5763,1.01707,2.0567,1.93246,2.74607a4.98419,4.98419,0,0,0-1.05092-2.78A.72275.72275,0,0,0,379.25965,442.14679Z" transform="translate(16.31303 -52)" fill="#007cff"/><path d="M335.94448,444.22606h10.79209a.77978.77978,0,0,1,.75718.61026l1.75157,7.91039a1.31127,1.31127,0,0,1-1.29963,1.58208c-3.49185-.05643-6.03446-.27117-10.41914-.27117-2.70081,0-10.84851.28245-14.57767.28245s-4.21508-3.68392-2.68954-4.0229c6.84818-1.49169,12.00122-3.55978,14.19356-5.526A2.14684,2.14684,0,0,1,335.94448,444.22606Z" transform="translate(16.31303 -52)" fill="#1a2e35"/><path d="M333.00635,445.78557a2.65537,2.65537,0,0,1-1.70632-.452,1.24294,1.24294,0,0,1-.44077-1.13.63257.63257,0,0,1,.36167-.58758c.9831-.50859,3.8534,1.25438,4.16982,1.45773a.1923.1923,0,0,1,.10178.20345.21483.21483,0,0,1-.1582.18078A10.63935,10.63935,0,0,1,333.00635,445.78557Zm-1.32209-1.842A.486.486,0,0,0,331.413,444c-.05654,0-.12425.0791-.13564.24859a.87026.87026,0,0,0,.28256.75719,4.317,4.317,0,0,0,3.16415.1582A8.62391,8.62391,0,0,0,331.68426,443.94361Z" transform="translate(16.31303 -52)" fill="#007cff"/><path d="M335.27779,445.46915h-.10167c-.91539-.49719-2.68953-2.45232-2.50876-3.39018a.68928.68928,0,0,1,.67808-.55372,1.12946,1.12946,0,0,1,.89272.27127c1.02835.83607,1.24309,3.39018,1.25437,3.51432a.22652.22652,0,0,1-.10178.19228A.192.192,0,0,1,335.27779,445.46915Zm-1.78553-3.60481h-.10168c-.27116,0-.29384.15821-.30513.21463-.11295.57641,1.01707,2.0567,1.93246,2.74607a4.98348,4.98348,0,0,0-1.051-2.77992A.7223.7223,0,0,0,333.49226,441.86434Z" transform="translate(16.31303 -52)" fill="#007cff"/><polygon points="360.674 374.433 351.507 375.401 352.402 385.599 361.57 384.631 360.674 374.433" opacity="0.2" style="isolation:isolate"/><polygon points="407.416 372.97 398.522 372.97 398.906 383.581 407.8 383.581 407.416 372.97" opacity="0.2" style="isolation:isolate"/><polygon points="346.324 384.476 366.08 381.537 365.476 376.066 344.925 378.764 346.324 384.476" fill="#007cff"/><polygon points="346.324 384.476 366.08 381.537 365.476 376.066 344.925 378.764 346.324 384.476" fill="#fff" opacity="0.6" style="isolation:isolate"/><polygon points="392.872 381.875 412.038 381.875 412.038 376.145 392.149 375.772 392.872 381.875" fill="#007cff"/><polygon points="392.872 381.875 412.038 381.875 412.038 376.145 392.149 375.772 392.872 381.875" fill="#fff" opacity="0.6" style="isolation:isolate"/><path d="M360.41025,290.42888a126.34081,126.34081,0,0,0-5.26632,20.39751c-1.31837-18.04093,3.95519-37.17508,3.95519-37.17508Z" transform="translate(16.31303 -52)" opacity="0.2" style="isolation:isolate"/><path d="M358.62066,162.89309c-3.42086,4.743-14.09593,5.51383-14.09593,5.51383s-6.84983-.40341-5.91789-2.71419c3.68107-1.43669,5.15128-3.60711,5.43242-6.04607a11.33,11.33,0,0,0-.53412-4.43782,23.492,23.492,0,0,0-.83475-2.36468l10.81674-12.209C353.13215,147.25945,353.51386,159.22572,358.62066,162.89309Z" transform="translate(16.31303 -52)" fill="#fde7de"/><path d="M351.80064,147.29835c1.11852,7.80257-4.757,11.26265-7.76138,12.34831a11.33,11.33,0,0,0-.53412-4.43782Z" transform="translate(16.31303 -52)" fill="#e5b9b6" opacity="0.2" style="isolation:isolate"/><path d="M326.77935,110.27611s-4.07731,17.03237,5.299,24.26766,11.70947-24.8,11.70947-24.8Z" transform="translate(16.31303 -52)" fill="#1e274f"/><path d="M359.70308,150.01043a17.76335,17.76335,0,0,1-19.79745,4.84205,18.33128,18.33128,0,0,1-10.12673-8.7556,17.01906,17.01906,0,0,1-.77138-1.70787c-4.08614-10.81927-4.2894-29.311,8.21428-35.45477,8.883-4.43947,19.99221-1.36719,24.78242,6.87917a15.907,15.907,0,0,1,2.20085,7.62181C364.78386,135.82266,365.754,143.08,359.70308,150.01043Z" transform="translate(16.31303 -52)" fill="#fde7de"/><path d="M344.38146,128.79515a1.54258,1.54258,0,0,1-1.0856,1.93524c-.71989.06715-1.36948-.70111-1.48644-1.7003-.11712-.99919.38269-1.87119,1.08559-1.93555C343.59775,127.03032,344.26134,127.78006,344.38146,128.79515Z" transform="translate(16.31303 -52)" fill="#1e274f"/><path d="M332.12853,129.954a1.55358,1.55358,0,0,1-1.0856,1.9354c-.70307.06452-1.36932-.70112-1.48644-1.70015s.38252-1.871,1.08559-1.93556C331.345,128.18927,332.02023,129.00184,332.12853,129.954Z" transform="translate(16.31303 -52)" fill="#1e274f"/><path d="M336.07606,130.07975a34.61507,34.61507,0,0,1-4.23126,9.08162,6.75193,6.75193,0,0,0,5.30835.40829Z" transform="translate(16.31303 -52)" fill="#e5b9b6"/><path d="M347.77753,124.75934a.70465.70465,0,0,1-.64243-.1715,5.372,5.372,0,0,0-4.29123-1.58962.63326.63326,0,0,1-.73623-.47807.595.595,0,0,1,.51631-.68228l.003-.00031a6.616,6.616,0,0,1,5.43747,1.93849.559.559,0,0,1-.00566.83309l-.011.00988A1.01431,1.01431,0,0,1,347.77753,124.75934Z" transform="translate(16.31303 -52)" fill="#1e274f"/><path d="M326.432,126.53775a.65952.65952,0,0,1-.37236.06005.57918.57918,0,0,1-.39135-.75005l.0045-.0122a6.15419,6.15419,0,0,1,4.21759-3.74715.63879.63879,0,0,1,.76238.44148l.00034.00123a.60483.60483,0,0,1-.47816.70729h0a4.98686,4.98686,0,0,0-3.28994,3.01671A.65583.65583,0,0,1,326.432,126.53775Z" transform="translate(16.31303 -52)" fill="#1e274f"/><path d="M352.74284,108.9736l-.4,5.49269a3.99383,3.99383,0,0,1,2.50523,5.01153c-1.63289,4.68522,1.59324,11.66287,5.55993,14.31065,0,0,.00183-1.99467,1.83981-1.614,1.83832.38113,1.94361,10.76016-1.29968,15.87635,0,0,5.08127-4.73538,7.46272-15.75671,2.20251-10.19318,2.06006-18.58866-.39719-22.36576Z" transform="translate(16.31303 -52)" fill="#1e274f"/><path d="M371.13416,132.99736a12.19866,12.19866,0,0,1-6.60571,6.62061c-4.066,1.70772-6.77764-1.51476-6.22718-5.40315.52464-3.45155,3.239-8.60942,7.60783-8.64215A5.312,5.312,0,0,1,371.13416,132.99736Z" transform="translate(16.31303 -52)" fill="#fde7de"/><path d="M352.34283,114.46629a41.91992,41.91992,0,0,0-13.59011,1.24014,24.04765,24.04765,0,0,1-11.84525.44812s-5.93662-11.11226,1.91646-17.85219,20.969-4.108,25.22609-1.82117c4.25692,2.28688-4.38969,1.9002-4.38969,1.9002s13.903,2.39988,19.9194,7.29379c6.01643,4.89376,4.565,12.93729,3.26479,14.30586-1.30018,1.36843-2.33613-1.64041-2.33613-1.64041a16.931,16.931,0,0,1-8.27092,1.62035C357.04824,119.8202,359.21876,115.58186,352.34283,114.46629Z" transform="translate(16.31303 -52)" fill="#1e274f"/><path d="M337.956,143.60392a32.42514,32.42514,0,0,1,2.39178,4.2811c.29872-.06453.59677-.1289.8905-.20778,4.02117-.96878,5.54127-2.64917,6.00676-4.218a5.04129,5.04129,0,0,0-.4595-3.61873c-1.80049,1.69352-5.474,2.8642-7.46438,3.41327C338.49032,143.49186,337.956,143.60392,337.956,143.60392Z" transform="translate(16.31303 -52)" fill="#e5b9b6"/><path d="M355.90122,159.42764a29.71034,29.71034,0,0,1-10.15225,8.3047,13.083,13.083,0,0,1-2.49823-5.62985s-4.04668,1.93366-5.83276,3.96538a16.03684,16.03684,0,0,0,2.58643,7.16164l5.55283-3.98,6.74,4.92481s8.85218-5.7198,10.83646-11.5989Z" transform="translate(16.31303 -52)" fill="#007cff"/><path d="M355.90122,159.42764a29.71034,29.71034,0,0,1-10.15225,8.3047,13.083,13.083,0,0,1-2.49823-5.62985s-4.04668,1.93366-5.83276,3.96538a16.03684,16.03684,0,0,0,2.58643,7.16164l5.55283-3.98,6.74,4.92481s8.85218-5.7198,10.83646-11.5989Z" transform="translate(16.31303 -52)" fill="#fff" opacity="0.4" style="isolation:isolate"/><path d="M285.97221,203.9698c-7.47674-.54179-6.50142,5.63467-5.16509,10.06547l5.81512,13.12313,11.81112-.43343S293.44905,204.51158,285.97221,203.9698Zm-.5419,15.40706c-1.72977-2.84379-6.71813-11.72293-1.40853-13.23993s11.59441,10.294,10.0772,14.845C292.58209,225.53305,288.86,225.01482,285.43031,219.37686Z" transform="translate(16.31303 -52)" fill="#007cff"/><path d="M285.97221,203.9698c-7.47674-.54179-6.50142,5.63467-5.16509,10.06547l5.81512,13.12313,11.81112-.43343S293.44905,204.51158,285.97221,203.9698Zm-.5419,15.40706c-1.72977-2.84379-6.71813-11.72293-1.40853-13.23993s11.59441,10.294,10.0772,14.845C292.58209,225.53305,288.86,225.01482,285.43031,219.37686Z" transform="translate(16.31303 -52)" fill="#fff" opacity="0.5" style="isolation:isolate"/><polygon points="300.118 174.4 303.802 160.762 321.681 165.283 317.111 187.836 300.118 174.4" fill="#007cff"/><polygon points="320.056 185.236 315.722 157.941 326.557 153.053 335.094 157.941 335.985 186.536 320.056 185.236" fill="#007cff"/><polygon points="320.056 185.236 315.722 157.941 326.557 153.053 335.094 157.941 335.985 186.536 320.056 185.236" opacity="0.2" style="isolation:isolate"/><path d="M311.54466,229.10883s5.95974-37.27512,10.294-38.467c4.33428-1.192,8.3436,4.551,8.3436,4.551s-3.69619,24.27229-6.39909,32.83249C321.08018,236.58556,311.54466,229.10883,311.54466,229.10883Z" transform="translate(16.31303 -52)" fill="#007cff"/><path d="M311.54466,229.10883s5.95974-37.27512,10.294-38.467c4.33428-1.192,8.3436,4.551,8.3436,4.551s-3.69619,24.27229-6.39909,32.83249C321.08018,236.58556,311.54466,229.10883,311.54466,229.10883Z" transform="translate(16.31303 -52)" fill="#fff" opacity="0.8" style="isolation:isolate"/><path d="M326.173,230.38062c0-5.4826,7.224-20.81231-1.763-22.32744-8.98673-1.515-16.1522,14.807-26.26555,14.77094-10.11357-.03615-17.33733-8.78885-17.33733-8.78885l1.55994,3.23252s-19.55475,38.26567-10.22861,42.062c8.66867,3.52856,57.36816,0,57.36816,0C336.59681,254.4787,326.173,235.86322,326.173,230.38062Zm-1.08357-5.66228c-1.08357.269-6.28492-5.34148-6.28492-5.34148-.43332-10.1655,5.093-10.85607,7.802-7.93044C329.31531,214.37217,326.173,224.44948,325.08939,224.71834Z" transform="translate(16.31303 -52)" fill="#f5a51c"/><path d="M326.173,230.38062c0-5.4826,7.224-20.81231-1.763-22.32744-8.98673-1.515-16.1522,14.807-26.26555,14.77094-10.11357-.03615-17.33733-8.78885-17.33733-8.78885l1.55994,3.23252s-19.55475,38.26567-10.22861,42.062c8.66867,3.52856,57.36816,0,57.36816,0C336.59681,254.4787,326.173,235.86322,326.173,230.38062Zm-1.08357-5.66228c-1.08357.269-6.28492-5.34148-6.28492-5.34148-.43332-10.1655,5.093-10.85607,7.802-7.93044C329.31531,214.37217,326.173,224.44948,325.08939,224.71834Z" transform="translate(16.31303 -52)" fill="#f5a51c" opacity="0.7" style="isolation:isolate"/><rect x="353.04583" y="198.44355" width="11.03944" height="7.55977" transform="translate(-3.23829 -12.53774) rotate(-6.13253)" fill="#fff" opacity="0.6" style="isolation:isolate"/><path d="M356.24667,194.97606l1.13287,3.63056a.98019.98019,0,0,0,1.0931.67545h0a.98008.98008,0,0,0,.81328-.83212l.58649-4.207Z" transform="translate(16.31303 -52)" fill="#007cff"/><path d="M356.24667,194.97606l1.13287,3.63056a.98019.98019,0,0,0,1.0931.67545h0a.98008.98008,0,0,0,.81328-.83212l.58649-4.207Z" transform="translate(16.31303 -52)" opacity="0.4" style="isolation:isolate"/><path d="M364.315,205.32s-4.07144,12.24444-5.82826,14.89924c-1.75672,2.65469-46.94212,14.35746-46.94212,14.35746s-3.79249-1.93541-6.17645-1.72626c-2.38385.20927-11.70266,2.3764-11.91938,4.11012s4.76782,9.53552,5.95975,10.18566,13.1113-1.15884,14.41158-4.26361c0,0,46.1606-8.2909,50.49488-10.03217,4.33439-1.74127,13.65046-22.32931,13.65046-22.32931Z" transform="translate(16.31303 -52)" fill="#fde7de"/><path d="M375.933,162.32435c6.98513.477,13.08774,15.53109,11.89582,27.66729-1.19193,12.13609-12.35291,32.83248-12.35291,32.83248l-15.60351-7.69422s3.90085-13.869,8.34359-26.98044C372.65864,175.03816,370.647,161.96346,375.933,162.32435Z" transform="translate(16.31303 -52)" fill="#007cff"/><path d="M375.933,162.32435c6.98513.477,13.08774,15.53109,11.89582,27.66729-1.19193,12.13609-12.35291,32.83248-12.35291,32.83248l-15.60351-7.69422s3.90085-13.869,8.34359-26.98044C372.65864,175.03816,370.647,161.96346,375.933,162.32435Z" transform="translate(16.31303 -52)" fill="#fff" opacity="0.4" style="isolation:isolate"/><polygon points="374.321 164.565 376.054 162.035 394.279 168.188 393.333 172.718 374.321 164.565" fill="#007cff"/><polygon points="374.321 164.565 376.054 162.035 394.279 168.188 393.333 172.718 374.321 164.565" fill="#fff" opacity="0.3" style="isolation:isolate"/></g><rect x="223.66606" y="230.63153" width="228.9231" height="171.9911" fill="#007cff"/><rect x="223.66606" y="230.63153" width="228.9231" height="171.9911" fill="#fff" opacity="0.3" style="isolation:isolate"/><rect x="223.66606" y="230.63153" width="169.5249" height="171.9911" fill="#fff" opacity="0.4" style="isolation:isolate"/><path d="M222.81356,224.299h231.52a1.56,1.56,0,0,1,1.56,1.56v6.83a1.56,1.56,0,0,1-1.56,1.56H222.81346a1.56,1.56,0,0,1-1.56-1.56v-6.8299A1.5601,1.5601,0,0,1,222.81356,224.299Z" fill="#007cff"/><path d="M222.81356,224.299h171.52a1.56,1.56,0,0,1,1.56,1.56v6.83a1.56,1.56,0,0,1-1.56,1.56H222.81346a1.56,1.56,0,0,1-1.56-1.56v-6.8299A1.5601,1.5601,0,0,1,222.81356,224.299Z" fill="#fff" opacity="0.2" style="isolation:isolate"/><path d="M246.27559,229.94269s2.07022-2.08936,1.86954-2.61855c-.20088-.5291-3.09233,1.35977-2.19855-.02686s-4.705,2.426-4.705,2.426a5.64583,5.64583,0,0,0,.97415-2.19716c.28256-1.341-3.42957,3.72247-3.81239,4.12394a48.44794,48.44794,0,0,1-4.30471,2.3829c.24737,3.70491,1.80313,2.724,1.80313,2.724s3.03394-1.68932,4.63662-2.42527c1.06962-.49142,7.589-3.74167,7.76224-4.38944C248.47394,229.29439,246.27559,229.94269,246.27559,229.94269Z" transform="translate(16.31303 -52)" fill="#e5b9b6"/><path d="M238.87285,228.4442a35.07553,35.07553,0,0,1,17.7074-3.70207l6.49424,6.82957s-5.5411-1.29616-18.04,1.54273Z" transform="translate(16.31303 -52)" fill="#007cff"/><path d="M238.87285,228.4442a35.07553,35.07553,0,0,1,17.7074-3.70207l6.49424,6.82957s-5.5411-1.29616-18.04,1.54273Z" transform="translate(16.31303 -52)" opacity="0.4" style="isolation:isolate"/><path d="M238.8069,227.96448a35.07662,35.07662,0,0,1,17.48555-4.63807l6.848,6.47478s-5.60216-.99986-17.9324,2.49946Z" transform="translate(16.31303 -52)" fill="#007cff"/><path d="M238.8069,227.96448a35.07662,35.07662,0,0,1,17.48555-4.63807l6.848,6.47478s-5.60216-.99986-17.9324,2.49946Z" transform="translate(16.31303 -52)" opacity="0.2" style="isolation:isolate"/><path d="M239.30666,227.06856l6.27517,5.23209a31.86044,31.86044,0,0,1,19.98467-3.14032l-7.883-6.94109S246.21605,220.89709,239.30666,227.06856Z" transform="translate(16.31303 -52)" fill="#007cff"/><path d="M240.896,227.20046l4.41027,3.88745s8.98578-4.79619,17.86133-3.03208l-5.84347-5.29221S247.34594,221.4939,240.896,227.20046Z" transform="translate(16.31303 -52)" opacity="0.2" style="isolation:isolate"/><path d="M253.26142,225.4811c0,.94963-1.02421,1.71936-2.28775,1.71936s-2.28775-.76973-2.28775-1.71936,1.02421-1.71949,2.28775-1.71949S253.26142,224.53146,253.26142,225.4811Z" transform="translate(16.31303 -52)" fill="#007cff"/><path d="M234.98628,233.51856s-28.4688,6.01081-33.58312,4.96782c-5.11449-1.04347-27.92674-9.48386-36.513-11.16685-8.5859-1.683-7.651,6.85887-7.651,6.85887.8384,12.38108,34.15168,12.90828,40.60075,13.50574,6.4487.597,39.81393-12.05439,39.81393-12.05439C234.185,234.98723,234.98628,233.51856,234.98628,233.51856Z" transform="translate(16.31303 -52)" fill="#e5b9b6"/><path d="M160.07267,452.11572a7.40974,7.40974,0,0,1-1.41411-.23418l-.00536.00133c-1.78318.68525-6.57381-.21994-10.08624-1.60154a9.10854,9.10854,0,0,1-3.53375-2.6133c.05705,3.31372.4302,7.41728,1.71617,10.39417l1.59533-.38022s-.08777-4.2324,1.2958-3.08125c1.38306,1.1511,2.72381,2.12369,2.72381,2.12369l11.19858-2.66729S163.19419,452.29826,160.07267,452.11572Z" transform="translate(16.31303 -52)" fill="#243145"/><path d="M150.60977,446.84319a28.81668,28.81668,0,0,1-2.20175-5.5596l-2.96735.69074a54.34833,54.34833,0,0,0-.18123,5.68847l.0013.00523a9.10858,9.10858,0,0,0,3.53374,2.6133c3.51243,1.3816,8.30307,2.28679,10.08625,1.60154C155.77512,451.11392,151.6741,448.65824,150.60977,446.84319Z" transform="translate(16.31303 -52)" fill="#e5b9b6"/><path d="M130.04257,456.4768l1.63534-.12158s.5863-4.19269,1.769-2.83636c1.18273,1.3565,2.35174,2.53,2.35174,2.53l11.48042-.85353s-.08483-1.795-3.13725-2.47141a7.40711,7.40711,0,0,1-1.35943-.45622l-.00518.00025c-1.8694.39323-6.45541-1.2619-9.70343-3.18415a9.10973,9.10973,0,0,1-3.07356-3.14171C129.53012,449.22277,129.24627,453.33362,130.04257,456.4768Z" transform="translate(16.31303 -52)" fill="#243145"/><path d="M130,445.93674l.00026.00536a9.10973,9.10973,0,0,0,3.07356,3.14171c3.248,1.92225,7.834,3.57738,9.70343,3.18415-2.94379-1.25245-6.6023-4.329-7.36469-6.29011-.88876-2.27612-.11557-5.92-.11557-5.92l-4.214.2918A54.35429,54.35429,0,0,0,130,445.93674Z" transform="translate(16.31303 -52)" fill="#e5b9b6"/><path d="M140.36923,222.232a13.10084,13.10084,0,0,0-2.2813,2.22c-4.31362,5.42249-2.14313,12.65262,1.08994,18.76129,3.5273,6.66465,8.446,15.84066,7.27986,23.68951-.85988,5.787-2.63826,7.59423-2.63826,7.59423s10.18882,5.23289,15.99021.10168c0,0,4.29962-15.961,4.70715-25.43556.40825-9.47441.92424-9.59365,2.47421-12.94631,2.41969-5.24-3.81513-10.99551-7.67835-13.553C153.56146,218.85649,146.11328,217.81189,140.36923,222.232Z" transform="translate(16.31303 -52)" fill="#279c83"/><path d="M141.912,274.497s-17.77535,10.32355-24.60756,29.14726c-6.83209,18.82418,3.45934,49.57938,7.04558,59.92845,3.58608,10.3491-.99078,23.38033,2.04135,38.24819,3.03217,14.86735,18.54227,44.0197,18.54227,44.0197a3.895,3.895,0,0,0,4.42346-2.019s-5.59582-36.72933-4.344-58.57305c1.252-21.84376,6.96491-55.89419,11.92762-75.9,4.96283-20.006.96146-34.74986.96146-34.74986S153.43447,277.72543,141.912,274.497Z" transform="translate(16.31303 -52)" fill="#313d63"/><path d="M143.22233,274.79764a51.09011,51.09011,0,0,0-22.08677,25.19351c-6.954,17.58556-1.00563,49.43051,1.09541,60.16416,2.1009,10.73365-2.58988,22.9296-1.282,38.04231,1.308,15.1122,11.58984,46.13269,11.58984,46.13269a2.71579,2.71579,0,0,0,3.7237-1.35053s-1.70227-37.05923.98059-58.43451c2.683-21.3753,9.9-54.14963,15.43626-73.17263,5.53633-19.02317,3.4369-34.15412,3.4369-34.15412S152.272,279.65583,143.22233,274.79764Z" transform="translate(16.31303 -52)" fill="#313d63"/><path d="M148.04931,213.49227c.57559-5.72124-9.70864-2.20455-9.70864-2.20455s2.29452,8.065.78346,11.92726a23.94653,23.94653,0,0,1,6.88257-2.47965l3.46024-3.20549S147.47357,219.21354,148.04931,213.49227Z" transform="translate(16.31303 -52)" fill="#fde7de"/><path d="M125.24212,204.28817s4.49153,8.53222,16.78372,8.30993a29.44147,29.44147,0,0,0,3.97341-.31367c7.863-1.21964,7.12812-3.528,7.12812-3.528a46.755,46.755,0,0,0-.45355-11.7771c-.09832-.64286,2.23966-1.38753,1.791-1.91114-8.34335-9.73834-7.30423-12.91487-7.96458-16.14507l-23.40654,2.30715-4.46664,5.43-1.40191,5.83933,4.65069,7.9074Z" transform="translate(16.31303 -52)" fill="#fde7de"/><path d="M136.8636,162.934s8.26417-5.80354,14.08381-2.81,8.843,7.83916,5.16358,14.77315c-3.6795,6.93316-13.30187,10.93472-17.27111,11.047s-8.46553-2.47654-8.7808-.927c-.31448,1.54945-.56969,4.89546-2.12343,6.13045,0,0-5.46648-1.698-5.78951,2.641s6.30245,6.91667,6.30245,6.91667l1.57192,8.55325s-23.60282-10.594-23.71-36.38867l6.24168-8.39809C112.553,164.47245,122.74408,157.2494,136.8636,162.934Z" transform="translate(16.31303 -52)" fill="#1e274f"/><path d="M111.92881,165.95949s-1.28618-2.68027-3.42534-3.50781c-2.14611-.83-6.20112-1.63372-10.482,7.54318-5.88024,12.60514-4.2548,17.33191-5.4944,27.69979-1.23947,10.36864-18.35145,15.6032-21.546,27.89746-3.25434,12.52362-.90509,22.25894,7.47992,27.77511,8.75162,5.75752,14.9277-7.20273,15.53953-10.2535s-.1084-6.92712.01815-9.98678a14.37,14.37,0,0,1,3.82361-9.08417c1.27863-1.33026,9.16405-10.92176,7.81926-21.53494-1.345-10.61256-3.55093-11.39651-3.301-20.77466.08656-3.24305,1.57751-11.09864,5.02827-11.4134Z" transform="translate(16.31303 -52)" fill="#212b54"/><path d="M103.95868,171.794a2.39247,2.39247,0,0,0,2.19489,1.47375c1.69157-.03564,6.39947-8.79533,6.39947-8.79533s-1.16789-3.29021-3.4067-1.09562C109.14643,163.37766,102.861,170.98482,103.95868,171.794Z" transform="translate(16.31303 -52)" fill="#f5a51c"/><circle cx="146.23038" cy="189.63932" r="1.03943" transform="translate(-2.96891 -35.42734) rotate(-6.08611)" fill="#212b54"/><path d="M144.8589,186.58088a4.48085,4.48085,0,0,0-1.79646,3.39539" transform="translate(16.31303 -52)" fill="#1e274f"/><ellipse cx="146.35508" cy="189.4904" rx="6.07553" ry="6.40612" transform="translate(-2.95244 -35.41493) rotate(-6.08612)" fill="none" stroke="#313d63" stroke-miterlimit="10"/><path d="M127.32906,190.32235c.26657-.02842,13.22813-.83732,13.22813-.83732" transform="translate(16.31303 -52)" fill="none" stroke="#313d63" stroke-miterlimit="10"/><path d="M151.82781,201.53948s-2.418.93267-7.5473-.13972c0,0,4.29035,6.2885,7.08815,3.42644Z" transform="translate(16.31303 -52)" fill="#e5b9b6"/><path d="M138.86556,212.65445s4.99722.23528,7.70652-.91878c0,0-5.70543,4.77272-6.58116,7.263Z" transform="translate(16.31303 -52)" fill="#e5b9b6"/><path d="M145.82945,239.76521s15.13954,11.89619,14.35939,36.16362l-18.10828-.32709s8.99647-16.39605-1.20073-29.95485Z" transform="translate(16.31303 -52)" fill="url(#b0e11eb1-521c-4492-85f0-8c6510f427fb)"/><g id="f065d67a-fc4c-4dad-92ef-9a5b78688f49" data-name="Purce"><path d="M124.036,311.37855c4.018,1.2513,4.63493,24.62145,4.63493,24.62145h-2.31746s1.22007-24.76675-4.83954-23.99166Z" transform="translate(16.31303 -52)" fill="url(#bc08ae8d-c7bb-48a8-981b-a5d4415c56f3)"/><path d="M124.036,311.37855c4.018,1.2513,4.63493,24.62145,4.63493,24.62145h-2.31746s1.22007-24.76675-4.83954-23.99166Z" transform="translate(16.31303 -52)" opacity="0.2" fill="url(#bc08ae8d-c7bb-48a8-981b-a5d4415c56f3)" style="isolation:isolate"/><path d="M109.15466,361.645c.42938-6.49306,4.456-25.645,4.456-25.645a38.6198,38.6198,0,0,1,5.54249-3.12506,30.22533,30.22533,0,0,1,9.19528-1.76353s1.83111,24.157,0,26.80748C126.5174,360.56949,108.64734,369.317,109.15466,361.645Z" transform="translate(16.31303 -52)" fill="url(#e7a3fff8-5253-4605-be33-7c971d4d722b)"/><path d="M113.61062,336s2.87349-25.71907,10.42537-24.62145c0,0-5.96942,1.25247-8.12061,25.45212Z" transform="translate(16.31303 -52)" fill="url(#b64bb542-4224-4d63-bbb3-f3910f5e7678)"/></g><path d="M120.8383,314.32227s.98523,2.77171,1.54893,2.8202c.564.04847.11567-3.37611.97768-1.96948.86208,1.40677-.14558-5.29151-.14558-5.29151a5.64618,5.64618,0,0,0,1.55719,1.83035c1.086.83618-1.867-4.70426-2.06285-5.2234a48.42526,48.42526,0,0,1-.28055-4.9123c-3.44543-1.38365-3.23649.44373-3.23649.44373s.20667,3.46608.175,5.22973c-.02142,1.1768.08058,8.46085.58917,8.89774C120.46923,316.58416,120.8383,314.32227,120.8383,314.32227Z" transform="translate(16.31303 -52)" fill="#e5b9b6"/><path d="M122.47956,302.72965s3.67188-31.37787,6.63459-35.72274c2.96287-4.3449,20.28591-21.41987,25.18554-28.75579,4.8995-7.33581-4.70148-11.62394-4.70148-11.62394-13.73017-6.71872-26.22909,25.3968-29.18589,31.31256-2.9565,5.91565-1.178,46.10231-1.178,46.10231C121.17324,301.0553,122.47956,302.72965,122.47956,302.72965Z" transform="translate(16.31303 -52)" fill="#fde7de"/></g></svg>