<svg id="b0b31a7e-8baf-48f0-b07e-3b7e33b6afac" data-name="Layer 1" xmlns="http://www.w3.org/2000/svg" xmlns:xlink="http://www.w3.org/1999/xlink" viewBox="0 0 573 572"><defs><linearGradient id="b766f19f-a559-4f7a-9366-63838b23104b" x1="173.04" y1="42.87" x2="470.79" y2="-189.76" gradientTransform="matrix(1, 0, 0, -1, 0, 116)" gradientUnits="userSpaceOnUse"><stop offset="0.01" stop-color="#fff"/><stop offset="0.28" stop-color="#fff"/><stop offset="0.6" stop-color="#fdfdfd"/><stop offset="0.72" stop-color="#f5f5f5"/><stop offset="0.8" stop-color="#ebebec"/><stop offset="0.87" stop-color="#dcdedf"/><stop offset="0.93" stop-color="#caccce"/><stop offset="0.98" stop-color="#b5b6b8"/><stop offset="1" stop-color="#a7a9ab"/></linearGradient><linearGradient id="e4863183-3796-470f-9da2-f6e7f7c1c6a5" x1="225.59" y1="369.91" x2="501.8" y2="415.81" gradientTransform="matrix(1, 0, 0, 1, 0, 0)" xlink:href="#b766f19f-a559-4f7a-9366-63838b23104b"/><linearGradient id="f1cb5586-2d90-41a1-8f02-0c6939b2e04d" x1="236.79" y1="-30.51" x2="103.13" y2="-30.51" gradientTransform="matrix(1, 0, 0, -1, -11, 102)" gradientUnits="userSpaceOnUse"><stop offset="0.01" stop-color="#fff"/><stop offset="0.44" stop-color="#fff"/><stop offset="0.69" stop-color="#fdfdfd"/><stop offset="0.78" stop-color="#f5f5f5"/><stop offset="0.85" stop-color="#ebebec"/><stop offset="0.9" stop-color="#dcdedf"/><stop offset="0.94" stop-color="#caccce"/><stop offset="0.98" stop-color="#b5b6b8"/><stop offset="1" stop-color="#a7a9ab"/></linearGradient><linearGradient id="bf26a2fa-ff04-4f5e-8d10-23cfa3ee5ff7" x1="66.49" y1="360.57" x2="244.14" y2="446.9" gradientUnits="userSpaceOnUse"><stop offset="0.01" stop-color="#fff"/><stop offset="0.28" stop-color="#fff"/><stop offset="0.29" stop-color="#fff"/><stop offset="0.5" stop-color="#fdfdfd"/><stop offset="0.6" stop-color="#f5f5f5"/><stop offset="0.73" stop-color="#ebebec"/><stop offset="0.87" stop-color="#dcdedf"/><stop offset="0.93" stop-color="#caccce"/><stop offset="0.98" stop-color="#b5b6b8"/><stop offset="1" stop-color="#a7a9ab"/></linearGradient></defs><path d="M543.86,586H51.14C29,586,11,568,11,546.33V53.67A39.67,39.67,0,0,1,50.67,14H543.86C566,14,584,32,584,53.67V546.33C583.54,568,565.55,586,543.86,586Z" transform="translate(-11 -14)" style="fill:#222c54"/><path d="M501,217.81v49.28l-63.3,25.33L236.48,209.21l-128.42-52.9,128.42-71,216.59,77.77C479.75,172.59,501,197.46,501,217.81Z" transform="translate(-11 -14)" style="fill:url(#b766f19f-a559-4f7a-9366-63838b23104b)"/><path d="M221,375.56V517l2.3,1.38L453.57,417C479.82,405.5,501,379.25,501,358.06V266.88l-66.78,25.79Z" transform="translate(-11 -14)" style="fill:url(#e4863183-3796-470f-9da2-f6e7f7c1c6a5)"/><polygon points="225.39 70.79 225.39 194.24 92 141.33 225.39 70.79" style="fill:url(#f1cb5586-2d90-41a1-8f02-0c6939b2e04d)"/><polygon points="212 361.67 212 504.2 92 442.59 92 300.05 212 361.67" style="fill:url(#bf26a2fa-ff04-4f5e-8d10-23cfa3ee5ff7)"/></svg>